# xmcd
#
# Track frame offsets:
#	150
#	10580
#	30933
#	50350
#	67318
#	82753
#	96773
#	110298
#	126338
#	142018
#	155925
#	175060
#	191378
#	205803
#	220305
#	236665
#
# Disc length: 3342 seconds
#
# Revision: 2
# Processed by: cddbd v1.5.2PL0 Copyright (c) Steve Scherf et al.
# Submitted via: EZCDAudioConverter 9.1.1.1
#
DISCID=d90d0c10
DTITLE=Kris Kristofferson - All Time Greatest Hits
DYEAR=2001
DGENRE=Country
TTITLE0=Help Me Make It Through the Night
TTITLE1=Sunday Morning Coming Down
TTITLE2=The Silver-Tongued Devil
TTITLE3=Loving Her Was Easier (Than Anything I'll Ever Do Again)
TTITLE4=For the Good Times
TTITLE5=Stranger
TTITLE6=From The Bottle To The Bottom
TTITLE7=Who`s to Bress  and  Who`s to Blame
TTITLE8=Why Me
TTITLE9=Jody and The Kid
TTITLE10=Me and Bobby McGee
TTITLE11=I Got A Life of My Own
TTITLE12=I'd Rather Be Sorry
TTITLE13=Josie
TTITLE14=You Show Me Yours
TTITLE15=Nobody Wins
EXTD=
EXTT0=
EXTT1=
EXTT2=
EXTT3=
EXTT4=
EXTT5=
EXTT6=
EXTT7=
EXTT8=
EXTT9=
EXTT10=
EXTT11=
EXTT12=
EXTT13=
EXTT14=
EXTT15=
PLAYORDER=
